<svg width="200" height="80" viewBox="0 0 200 80" fill="none" xmlns="http://www.w3.org/2000/svg">
<circle cx="160" cy="40" r="40" fill="#291E24"/>
<path opacity="0.4" d="M154.515 41.7856L149.171 42.2764C147.972 42.2764 147 41.2569 147 39.9995C147 38.7421 147.972 37.7227 149.171 37.7227L154.515 38.2134C155.455 38.2134 156.218 39.0131 156.218 39.9995C156.218 40.9876 155.455 41.7856 154.515 41.7856Z" fill="white"/>
<path d="M172.458 41.6954C172.374 41.7829 172.062 42.153 171.769 42.4604C170.06 44.3853 165.596 47.5329 163.26 48.4962C162.906 48.6498 162.009 48.977 161.529 49.0001C161.07 49.0001 160.632 48.8894 160.214 48.6713C159.693 48.3656 159.277 47.8832 159.047 47.3148C158.9 46.9215 158.67 45.7402 158.67 45.7187C158.442 44.4282 158.317 42.3298 158.317 40.01C158.317 37.8026 158.442 35.7901 158.629 34.4782C158.65 34.4551 158.88 32.9895 159.13 32.4872C159.589 31.5685 160.485 31.0001 161.445 31.0001L161.529 31.0001C162.154 31.0216 163.468 31.5916 163.468 31.6115C165.679 32.5748 170.038 35.5703 171.79 37.5613C171.79 37.5613 172.285 38.0736 172.499 38.3924C172.833 38.8518 173 39.4202 173 39.9886C173 40.623 172.812 41.2129 172.458 41.6954Z" fill="white"/>
<circle opacity="0.1" cx="40" cy="40" r="39.5" transform="rotate(-180 40 40)" fill="white" stroke="#181B1D"/>
<path opacity="0.4" d="M45.4853 38.2142L50.8286 37.7235C52.0278 37.7235 53 38.743 53 40.0004C53 41.2577 52.0278 42.2772 50.8286 42.2772L45.4853 41.7865C44.5446 41.7865 43.7819 40.9868 43.7819 40.0004C43.7819 39.0123 44.5446 38.2142 45.4853 38.2142Z" fill="#071731"/>
<path d="M27.5421 38.3047C27.6256 38.2171 27.9376 37.847 28.2307 37.5397C29.9404 35.6148 34.4045 32.4672 36.7398 31.5039C37.0943 31.3502 37.9909 31.0231 38.4715 30.9999C38.93 30.9999 39.3681 31.1106 39.7857 31.3287C40.3072 31.6344 40.7232 32.1169 40.9533 32.6853C41.0998 33.0785 41.3299 34.2599 41.3299 34.2814C41.5584 35.5718 41.6829 37.6702 41.6829 39.99C41.6829 42.1975 41.5584 44.21 41.3709 45.5219C41.3504 45.545 41.1203 47.0106 40.8698 47.5129C40.4112 48.4316 39.5146 48.9999 38.555 48.9999L38.4715 48.9999C37.8459 48.9785 36.5318 48.4084 36.5318 48.3886C34.321 47.4253 29.9625 44.4297 28.2102 42.4387C28.2102 42.4387 27.7155 41.9265 27.5012 41.6076C27.1671 41.1483 27.0001 40.5799 27.0001 40.0115C27.0001 39.377 27.1876 38.7872 27.5421 38.3047Z" fill="#071731"/>
</svg>
