<svg width="62" height="53" viewBox="0 0 62 53" fill="none" xmlns="http://www.w3.org/2000/svg">
<path d="M61.144 37.7508L58.9945 35.0622C58.9379 34.989 58.9246 34.979 58.8348 34.8625L58.319 34.2103L57.8232 33.5947C57.7566 33.5116 57.7566 33.5116 57.6901 33.4284L55.9132 31.2089C55.8333 31.1091 55.7069 31.0625 55.5805 31.0825L55.5871 31.0858C55.5838 31.0858 55.5838 31.0858 55.5805 31.0858C54.9316 30.4702 54.1496 30.1907 53.2479 30.1907H53.1248C52.8885 30.1907 52.6689 30.214 52.4626 30.2539C52.2596 30.2939 52.0633 30.1574 52.0367 29.9511C51.461 25.1129 51.4943 15.2302 52.1565 11.5201C52.1864 11.3504 52.3328 11.2306 52.5025 11.2306H55.4407C55.7834 11.2306 55.9232 10.7913 55.647 10.5917L53.4442 8.19922L51.8703 6.63196L51.5475 6.39904C51.3179 6.23266 49.2116 4.78853 46.3 4.78853C44.9491 4.78853 43.6547 5.09798 42.4335 5.69694C42.2704 5.7768 42.0708 5.72688 41.9743 5.57049L40.2939 2.84193C40.2174 2.71549 40.0676 2.65227 39.9212 2.68221L38.9263 2.89185C38.7899 2.92179 38.6468 2.86523 38.5669 2.74876C38.0878 2.04999 37.1926 1.13492 35.6121 1.13492H35.4524C33.9217 1.13492 33.0166 2.0034 32.5108 2.68221C32.4277 2.79535 32.2812 2.84526 32.1448 2.80866L31.2664 2.58239C31.1166 2.54246 30.9602 2.60901 30.8804 2.73878L29.0835 5.657C28.9305 5.90657 28.5578 5.86664 28.4546 5.59045C27.1868 2.25962 23.9558 0.000244141 20.2956 0.000244141C18.2591 0.000244141 16.3425 0.68571 14.7553 1.98677L11.664 4.519C11.4544 4.69203 11.5076 5.02478 11.7638 5.12128L13.6372 5.83004C13.96 5.95315 13.9334 6.419 13.5973 6.50219L7.53126 7.99624C1.56504 9.43705 -0.684354 14.9474 0.17747 19.6458C0.799714 23.0266 3.65139 25.3891 7.11865 25.3891C8.99536 25.3891 10.7057 24.6903 11.9835 23.4525C12.1498 23.2928 12.4227 23.336 12.5292 23.539C13.767 25.9115 15.8001 29.5452 17.2176 32.3769C17.3341 32.6098 17.1644 32.8893 16.9048 32.8893H12.2131C12.0201 32.8893 11.8603 33.0457 11.8603 33.242C11.8603 33.4616 11.6607 33.6314 11.4444 33.5881C10.9453 33.4849 10.4262 33.4284 9.88713 33.4284C8.38643 33.4284 3.39184 32.9326 1.94438 38.423L1.88115 38.6825L1.80129 39.0319C1.58501 40.0501 1.46522 41.2214 1.46522 42.5724C1.46522 51.926 6.35332 52.668 8.14352 52.668C8.69256 52.668 9.22829 52.5981 9.74738 52.4717C9.77067 52.465 9.79729 52.4617 9.82391 52.4617H24.9441L24.6912 52.4717H33.8152H35.7751H44.2703H46.34L51.0151 52.475V52.4717H58.106C58.3123 52.4717 58.4754 52.292 58.4554 52.0857L58.4454 44.3725L58.4754 42.8319L58.4521 38.6326C58.4754 38.4562 58.6251 38.3231 58.8015 38.3231H60.8712C61.164 38.3231 61.3271 37.9804 61.144 37.7508Z" fill="#3C2415"/>
<path d="M21.9393 33.7309L20.6749 34.0437C16.5321 25.6584 13.0216 18.9302 10.6691 14.7508C6.51968 15.8489 7.86399 20.5407 10.7489 20.1347C8.83895 23.8349 3.28201 23.0529 2.53 18.9534C1.88779 15.4562 3.51494 11.4266 7.89061 10.3685L15.1213 8.58827C14.5456 10.6946 17.6934 16.2648 21.2439 23.1727C21.7264 9.79615 19.8031 5.20752 16.1761 3.83326C19.5801 1.04814 24.7777 2.6653 25.8957 6.92119C27.3232 12.3417 27.2567 19.6788 26.9206 27.6416C26.7975 30.5531 24.7677 33.0321 21.9393 33.7309Z" fill="white"/>
<path d="M42.297 16.112V26.2342C42.297 30.6731 39.5818 33.4582 35.2926 33.4582C31.0001 33.4582 28.2882 30.6698 28.2882 26.2342V16.112C28.2882 11.6731 31.0035 8.88794 35.2926 8.88794C39.5818 8.88794 42.297 11.6731 42.297 16.112ZM35.2893 6.51543C34.3875 7.6734 33 8.34888 31.5325 8.34888H30.1549L31.9884 5.36744C34.3143 5.96306 33.8817 3.58057 35.1861 3.58057H35.3458C36.6769 3.58057 35.9548 5.96639 38.6101 5.40404L40.4203 8.34888H39.0427C37.5786 8.34888 36.191 7.6734 35.2893 6.51543ZM33.6388 16.1486V26.1976C33.6388 27.7017 34.1513 28.3971 35.2893 28.3971C36.4273 28.3971 36.9397 27.7017 36.9397 26.1976V16.1486C36.9397 14.6445 36.4273 13.9491 35.2893 13.9491C34.1513 13.9491 33.6388 14.6445 33.6388 16.1486Z" fill="white"/>
<path d="M42.5066 32.9858C43.9375 29.5385 43.791 12.5549 42.5066 9.14417H49.7306C48.2632 12.5549 48.4096 29.5385 49.7306 32.9858H42.5066Z" fill="white"/>
<path d="M6.48647 43.3545C6.48647 46.6753 7.54795 47.9597 8.50294 47.9597C9.4413 47.9597 9.93044 46.8384 9.58438 45.5972L12.6424 46.5955C12.7023 48.8582 10.8488 50.7748 8.50627 50.7748C4.37018 50.7748 3.53497 46.6787 3.53497 43.3578C3.53497 39.0786 4.91922 35.8776 8.60942 35.8776C13.1548 35.8776 14.396 41.5011 11.0951 43.9468L8.34322 41.8671C10.3597 41.8671 10.6259 38.6893 8.60942 38.6893C7.54462 38.6893 6.48647 39.8905 6.48647 43.3545Z" fill="white"/>
<path d="M18.0894 50.9407C18.4555 50.4482 18.3889 49.826 18.3057 49.054H16.5255C16.439 49.8692 16.3758 50.5114 16.7618 50.9407H12.5358C13.6306 48.5382 15.2378 38.8851 14.8751 36.9951H19.9994C19.5935 38.8618 21.3304 48.5349 22.3819 50.9407H18.0894ZM17.4672 42.2193L16.998 46.3753H17.8964L17.4672 42.2193ZM19.9961 36.2464H13.6505C13.3544 36.2464 13.1148 36.0068 13.1148 35.7107H19.4604C19.7565 35.7107 19.9961 35.9503 19.9961 36.2464Z" fill="white"/>
<path d="M37.6984 40.4062C37.6984 38.8456 37.146 37.6177 36.2509 36.7293C35.1629 35.6445 33.569 35.0722 31.842 35.0456C31.842 35.0456 31.842 35.0456 31.8387 35.0456C31.7954 35.0422 31.7488 35.0422 31.7056 35.0422C31.5525 35.0422 31.3795 35.0622 31.2264 35.0622C27.2401 35.2918 25.2901 37.438 24.9075 39.6275C24.5182 41.867 27.3698 43.1747 28.8705 41.4677C27.5728 41.4876 27.4197 38.2233 31.273 37.9605C31.466 37.9405 31.639 37.9405 31.7921 37.9405C34.128 37.9405 34.5373 39.175 34.5373 40.4494C34.5373 41.5109 33.8884 42.9817 32.614 42.9817C32.5474 42.9817 32.4609 42.9617 32.3977 42.9617C32.4177 41.7904 32.4177 40.4062 32.4177 38.7857L29.8987 39.4279C29.3564 39.5643 29.0103 40.0901 29.0968 40.6424C29.4895 43.2046 29.2366 49.2141 28.7008 51.0742H36.241C31.9185 49.9861 32.3578 49.0843 32.3777 46.053C36.1178 45.9664 37.6984 43.351 37.6984 40.4062Z" fill="white"/>
<path d="M43.2553 51.0739C43.9275 49.7096 43.7977 49.2138 43.7977 45.2308H41.9376C41.9376 49.1473 41.8079 49.6897 42.5 51.0739H38.2341C39.0793 48.9976 38.9928 38.9352 38.2341 37.0085H42.4967C41.738 38.5226 41.9343 37.6574 41.9343 42.2028H43.7944C43.7944 37.7672 43.9907 38.5259 43.252 37.0085H47.5378C46.6494 38.9984 46.6061 48.8445 47.5179 51.0739H43.2553Z" fill="white"/>
<path d="M52.386 42.549C52.4925 42.549 52.6023 42.549 52.7088 42.549C53.7037 42.549 54.3326 42.5257 55.3043 42.1597V45.9464C54.3093 45.577 53.574 45.5338 52.3827 45.5338V48.086C53.0116 48.086 53.5074 48.086 53.8967 48.086C55.2377 48.086 55.5405 48.0427 56.1894 47.7166L56.5354 51.0707H48.6592C49.5244 48.9079 49.4379 38.9753 48.6592 37.0054H56.5354L56.1228 40.3595C55.4307 40.0334 55.1279 39.9901 54.0465 39.9901C53.6139 39.9901 53.0948 39.9901 52.3794 39.9901V42.549H52.386Z" fill="white"/>
<path d="M42.5066 8.34883H49.7306C49.734 8.34883 46.2268 5.84322 42.5066 8.34883Z" fill="white"/>
<path d="M52.6023 35.3649C51.9102 36.0471 50.8487 36.4464 49.7207 36.4464H48.6625L50.07 34.6895C51.8536 35.0422 51.5242 33.6346 52.5224 33.6346H52.6455C53.6671 33.6346 53.1114 35.0422 55.1511 34.7094L56.5387 36.4464H55.4806C54.3559 36.4464 53.2944 36.0471 52.6023 35.3649Z" fill="white"/>
<path d="M39.7982 35.0088L39.4421 35.265C38.7134 35.9938 38.0479 36.4396 37.0363 36.5428C35.9482 35.458 35.0165 34.8824 33.2896 34.8557C33.3095 34.8524 33.3228 34.8524 33.3262 34.8524L39.7682 34.9356C39.8048 34.9356 39.8248 34.9822 39.7982 35.0088Z" fill="white"/>
</svg>
