<svg width="130" height="23" viewBox="0 0 130 23" fill="none" xmlns="http://www.w3.org/2000/svg">
<path d="M10 18.5833L3.81935 22L5 14.7634L0 9.63885L6.90967 8.58384L10 2L13.0903 8.58384L20 9.63885L15 14.7634L16.1807 22L10 18.5833Z" fill="#F1A32D"/>
<path d="M37 18.5833L30.8193 22L32 14.7634L27 9.63885L33.9097 8.58384L37 2L40.0903 8.58384L47 9.63885L42 14.7634L43.1807 22L37 18.5833Z" fill="#F1A32D"/>
<path d="M64 18.5833L57.8193 22L59 14.7634L54 9.63885L60.9097 8.58384L64 2L67.0903 8.58384L74 9.63885L69 14.7634L70.1807 22L64 18.5833Z" fill="#F1A32D"/>
<path d="M91 18.5833L84.8193 22L86 14.7634L81 9.63885L87.9097 8.58384L91 2L94.0903 8.58384L101 9.63885L96 14.7634L97.1807 22L91 18.5833Z" fill="#F1A32D"/>
<path d="M118 18.5833L111.819 22L113 14.7634L108 9.63885L114.91 8.58384L118 2L121.09 8.58384L128 9.63885L123 14.7634L124.181 22L118 18.5833Z" stroke="#DABDA3" stroke-linecap="square"/>
</svg>
